<?xml version="1.0" encoding="UTF-8"?>
<!DOCTYPE svg PUBLIC "-//W3C//DTD SVG 1.1//EN" "http://www.w3.org/Graphics/SVG/1.1/DTD/svg11.dtd">
<!-- Creator: CorelDRAW 2026 -->
<svg xmlns="http://www.w3.org/2000/svg" xml:space="preserve" width="13.4018mm" height="11.7488mm" version="1.1" style="shape-rendering:geometricPrecision; text-rendering:geometricPrecision; image-rendering:optimizeQuality; fill-rule:evenodd; clip-rule:evenodd"
viewBox="0 0 108.98 95.54"
 xmlns:xlink="http://www.w3.org/1999/xlink"
 xmlns:xodm="http://www.corel.com/coreldraw/odm/2003">
 <defs>
  <style type="text/css">
   <![CDATA[
    .fil3 {fill:#1C9A59}
    .fil2 {fill:#407DED}
    .fil0 {fill:#D93432}
    .fil6 {fill:#E2DFE2}
    .fil4 {fill:#EF8232}
    .fil8 {fill:#F99A4A}
    .fil7 {fill:#F9F6F9}
    .fil5 {fill:#FFAA50}
    .fil1 {fill:#FFC94C}
   ]]>
  </style>
 </defs>
 <g id="Layer_x0020_1">
  <metadata id="CorelCorpID_0Corel-Layer"/>
  <g id="_1452424089040">
   <g>
    <rect class="fil0" x="-0" y="1.34" width="108.98" height="31.37" rx="2.7" ry="2.65"/>
    <rect class="fil1" x="5.7" y="5.09" width="6.4" height="23.89"/>
   </g>
   <g>
    <rect class="fil2" x="-0" y="32.04" width="108.98" height="31.37" rx="2.7" ry="2.65"/>
    <rect class="fil1" x="5.7" y="35.79" width="6.4" height="23.89"/>
   </g>
   <g>
    <rect class="fil3" x="-0" y="62.82" width="108.98" height="31.37" rx="2.7" ry="2.65"/>
    <rect class="fil1" x="5.7" y="66.56" width="6.4" height="23.89"/>
   </g>
  </g>
  <rect class="fil4" x="38.72" y="-0" width="31.53" height="95.54" rx="1.34" ry="1.35"/>
  <path class="fil5" d="M54.49 16.69l0 0c8.67,0 15.77,7.09 15.77,15.77l0 61.74c0,0.74 -0.6,1.34 -1.34,1.34l-28.84 0c-0.74,0 -1.34,-0.6 -1.34,-1.34l0 -61.74c0,-8.67 7.09,-15.77 15.77,-15.77z"/>
  <path class="fil6" d="M38.17 44.55l0.56 0c-0.01,0.08 -0.01,0.16 -0.01,0.25l0 25.57c0,1.59 1.3,2.89 2.89,2.89l25.75 0c1.59,0 2.89,-1.3 2.89,-2.89l0 -25.57c0,-0.08 -0,-0.16 -0.01,-0.25l0.56 0c1.73,0 3.14,1.41 3.14,3.14l0 27.83c0,1.73 -1.41,3.14 -3.14,3.14l-32.63 0c-1.73,0 -3.14,-1.41 -3.14,-3.14l0 -27.83c0,-1.73 1.41,-3.14 3.14,-3.14z"/>
  <rect class="fil7" x="51.34" y="56.11" width="6.3" height="20.07" rx="0.51" ry="1.85"/>
  <rect class="fil8" x="37.7" y="33.42" width="33.21" height="10.08" rx="0.6" ry="0.7"/>
 </g>
</svg>
